# xmcd
#
# Track frame offsets:
#	150
#	10212
#	22057
#	35812
#	44887
#	57275
#	71082
#	79894
#	89888
#	99124
#	109742
#	123101
#	133549
#	142576
#	153960
#	162720
#	173623
#	185282
#	197926
#	207498
#	216675
#	230020
#	242152
#	254633
#	265795
#	276446
#	286146
#	296621
#	313061
#	324965
#
# Disc length: 4536 seconds
#
# Revision: 0
# Processed by: cddbd v1.5.2PL0 Copyright (c) Steve Scherf et al.
# Submitted via: audiograbber 1.83.01
#
DISCID=d211b61e
DTITLE=Various Artist - Country Singles Vol. 2
DYEAR=1900
DGENRE=
TTITLE0=Stonewall Jackson - I'm Not strong Enough (To Build Another Dream)
TTITLE1=Stonewall JAckson - I've Run Out Of Reasons (For Running Late At Night)
TTITLE2=Brenda Lee - Lonely People Do Foolish Things
TTITLE3=Brenda Lee - Ride, Ride, Ride
TTITLE4=Charlie Rich - She
TTITLE5=Charlie Rich - Since I Fell For You
TTITLE6=Tompall Glaser - Let It Be Pretty
TTITLE7=Tompall Glaser - Bad, Bad, Bad Cowboy
TTITLE8=Little Miss Sharon - Your Always Putting Me Down
TTITLE9=Little Miss Sharon - I'm Not Happy
TTITLE10=Jim Glaser - Fool Passing Through
TTITLE11=Jim Glaser - If It Pleases You
TTITLE12=Ernest Tubb - Next Time
TTITLE13=Ernest Tubb - What I Know About Her
TTITLE14=Cheryle Thompson - Top Twenty
TTITLE15=Cheryle Thompson - Wall To Wall Heartaches
TTITLE16=Lefty Frizzell - I Never Go Around Mirrors
TTITLE17=Lefty Frizzell - That's The Way Love Goes
TTITLE18=Lucille Starr - Cajun Love
TTITLE19=Lucille Starr - Full House
TTITLE20=Jean Shepard - The Tip Of My Fingers
TTITLE21=Jean Shepard - Bright Lights And Country Music
TTITLE22=Tammy Wynette - We Sure Can Love Each Other
TTITLE23=Tammy Wynette - Fun
TTITLE24=Onie Wheeler - John's Been Shucking My Corn
TTITLE25=Onie Wheeler - Make 'Em All Go Home
TTITLE26=Webb Pierce - Who Do I Think I Am
TTITLE27=Webb Pierce - Hobo And The Rose
TTITLE28=Ferlin Husky - Ring Of String
TTITLE29=Ferlin Husky - A Room For A Boy ... Never Used
EXTD=
EXTT0=
EXTT1=
EXTT2=
EXTT3=
EXTT4=
EXTT5=
EXTT6=
EXTT7=
EXTT8=
EXTT9=
EXTT10=
EXTT11=
EXTT12=
EXTT13=
EXTT14=
EXTT15=
EXTT16=
EXTT17=
EXTT18=
EXTT19=
EXTT20=
EXTT21=
EXTT22=
EXTT23=
EXTT24=
EXTT25=
EXTT26=
EXTT27=
EXTT28=
EXTT29=
PLAYORDER=
